<?xml version="1.0" encoding="UTF-8" standalone="no"?>
<svg width="200px" height="189px" viewBox="0 0 200 189" version="1.1" xmlns="http://www.w3.org/2000/svg" xmlns:xlink="http://www.w3.org/1999/xlink">
    <!-- Generator: Sketch 3.7.2 (28276) - http://www.bohemiancoding.com/sketch -->
    <title>coeur_44_</title>
    <desc>Created with Sketch.</desc>
    <defs></defs>
    <g id="Page-1" stroke="none" stroke-width="1" fill="none" fill-rule="evenodd">
        <g id="200" transform="translate(0.000000, -6.000000)" fill="#FF79A6">
            <path d="M103.668091,39.5097913 C98.2516314,28.0723569 90.2440218,19.3681646 80.4740824,13.6095258 C71.927037,8.57169036 62.3170758,6 53.2285795,6 C39.6718481,6 26.5128603,11.2476268 16.7788799,20.9838948 C6.00207206,31.7632354 0,47.3064988 0,66.4374295 C0,95.7445729 16.6077956,126.73178 48.0768115,155.786929 L48.0384021,155.751002 C58.1270173,165.310884 68.845473,173.895161 79.9676583,181.759243 C83.6888157,184.390335 86.998667,186.624793 90.7677607,189.093864 C91.0186631,189.258227 93.4538767,190.847771 93.9420411,191.170854 C94.3275695,191.426009 94.6043601,191.613037 94.7923191,191.745378 C94.8456243,191.78291 94.8783164,191.808079 94.7312475,191.660976 L95.9200489,192.850056 L97.6014656,192.850056 C97.1401438,192.850056 96.6464133,192.711779 96.2250246,192.458887 C96.0816302,192.37283 95.9715909,192.289904 95.885557,192.213974 C95.8705672,192.200744 95.8632471,192.19392 95.8626794,192.19337 C95.8741637,192.204503 95.8892428,192.219468 95.9305147,192.26075 C96.0016741,192.331926 96.0367597,192.366747 96.0887132,192.417114 C96.1730187,192.498844 96.2557113,192.575938 96.3446514,192.654433 C96.6058908,192.884993 96.882034,193.093095 97.1994292,193.283577 C98.033066,193.783876 98.9818756,194.049605 100,194.049605 L100,194.049605 C100.542083,194.049605 100.795028,194.045589 101.150751,194.021869 C101.775865,193.980185 102.346265,193.886825 102.932714,193.691296 C105.031169,192.991646 106.457159,191.1578 106.457159,188.791432 L102.398534,188.791432 L102.398534,192.850056 C103.294362,192.850056 103.769839,192.682124 104.580826,192.305434 C104.92451,192.145799 105.325696,191.936702 105.792981,191.676417 C106.681561,191.181462 107.836455,190.48532 109.181306,189.632749 C112.2237,187.704018 116.001174,185.129207 120.069981,182.182137 C130.641258,174.525276 141.69778,165.476904 151.961598,155.751002 L151.983366,155.730221 C183.888772,125.044737 200,95.2939404 200,66.4374295 C200,47.3064988 193.997928,31.7632354 183.22112,20.9838948 C173.48714,11.2476268 160.328152,6 146.771421,6 C137.682924,6 128.072963,8.57169036 119.525918,13.6095258 C109.755978,19.3681646 101.748369,28.0723569 96.3319095,39.5097913 L103.668091,39.5097913 L103.668091,39.5097913 Z M96.3319095,42.984008 L100,50.7295746 L103.668091,42.984008 C108.385008,33.0237312 115.268731,25.5411928 123.647701,20.6024246 C130.934019,16.3076926 139.119326,14.1172492 146.771421,14.1172492 C158.212529,14.1172492 169.297352,18.5377268 177.480684,26.7229823 C186.683047,35.9275083 191.882751,49.392919 191.882751,66.4374295 C191.882751,92.7601746 176.813032,120.587732 146.356543,149.8797 L146.378312,149.858919 C136.387839,159.325801 125.604373,168.150711 115.308401,175.608167 C111.370392,178.460499 107.730426,180.941581 104.835129,182.777059 C103.610178,183.553619 102.581114,184.173915 101.842978,184.585069 C101.534836,184.756709 101.298709,184.879778 101.161368,184.94357 C101.495927,184.788173 101.652689,184.732807 102.398534,184.732807 L98.3399098,184.732807 L98.3399098,188.791432 C98.3399098,187.53893 99.2562108,186.360552 100.365271,185.990778 C100.475102,185.954159 100.562014,185.933581 100.630361,185.922394 C100.644978,185.920002 100.637351,185.920828 100.610673,185.922607 C100.497932,185.930125 100.357367,185.932356 100,185.932356 L100,185.932356 C100.461322,185.932356 100.955052,186.070633 101.376441,186.323526 C101.519835,186.409583 101.629875,186.492509 101.715909,186.568439 C101.730898,186.581668 101.738219,186.588493 101.738786,186.589043 C101.727302,186.577909 101.712223,186.562944 101.670951,186.521663 C101.599792,186.450486 101.564706,186.415666 101.512752,186.365299 C101.428447,186.283568 101.345754,186.206474 101.256814,186.127979 C100.995575,185.89742 100.719432,185.689318 100.402036,185.498836 C99.5683996,184.998536 98.61959,184.732807 97.6014656,184.732807 L97.6014656,188.791432 L100.471684,185.921888 C100.041479,185.491582 99.6172315,185.192871 98.4219998,184.401828 C97.9085048,184.061981 95.4463097,182.454825 95.215804,182.303824 C91.5207545,179.883258 88.2865481,177.699867 84.6539595,175.131399 C73.8270889,167.476123 63.4029892,159.127592 53.6216881,149.858919 L53.6025998,149.840831 L53.5832787,149.822992 C23.6449193,122.181088 8.11724915,93.2092039 8.11724915,66.4374295 C8.11724915,49.392919 13.316953,35.9275083 22.5193162,26.7229823 C30.7026485,18.5377268 41.7874709,14.1172492 53.2285795,14.1172492 C60.8806736,14.1172492 69.065981,16.3076926 76.3522986,20.6024246 C84.7312694,25.5411928 91.6149922,33.0237312 96.3319095,42.984008 L96.3319095,42.984008 Z M138.444194,123.700113 L138.444194,56.0563698 C138.444194,53.8148533 136.627086,51.9977452 134.385569,51.9977452 C132.144053,51.9977452 130.326945,53.8148533 130.326945,56.0563698 L130.326945,123.700113 C130.326945,125.941629 132.144053,127.758737 134.385569,127.758737 C136.627086,127.758737 138.444194,125.941629 138.444194,123.700113 Z M104.171364,123.700113 L104.171364,78.6042841 C104.171364,76.3627676 102.354256,74.5456595 100.11274,74.5456595 C97.8712231,74.5456595 96.054115,76.3627676 96.054115,78.6042841 L96.054115,123.700113 C96.054115,125.941629 97.8712231,127.758737 100.11274,127.758737 C102.354256,127.758737 104.171364,125.941629 104.171364,123.700113 Z M69.8985344,123.700113 L69.8985344,101.152198 C69.8985344,98.910682 68.0814263,97.0935738 65.8399098,97.0935738 C63.5983933,97.0935738 61.7812852,98.910682 61.7812852,101.152198 L61.7812852,123.700113 C61.7812852,125.941629 63.5983933,127.758737 65.8399098,127.758737 C68.0814263,127.758737 69.8985344,125.941629 69.8985344,123.700113 Z" id="coeur_44_"></path>
        </g>
    </g>
</svg>