<?xml version="1.0" encoding="UTF-8" standalone="no"?>
<svg width="500px" height="112px" viewBox="0 0 500 112" version="1.1" xmlns="http://www.w3.org/2000/svg" xmlns:xlink="http://www.w3.org/1999/xlink">
    <!-- Generator: Sketch 3.8 (29681) - http://www.bohemiancoding.com/sketch -->
    <title>logo</title>
    <desc>Created with Sketch.</desc>
    <defs></defs>
    <g id="Page-2" stroke="none" stroke-width="1" fill="none" fill-rule="evenodd">
        <g id="logo" fill="#FF79A6">
            <g id="Group-2">
                <path d="M58.2173913,112 C60.3816288,112 62.4962703,111.25815 64.1965136,109.862842 C64.8545929,109.323901 65.8161699,108.517807 67.043041,107.461922 C68.9240989,105.843022 70.9741416,104.025821 73.147628,102.033787 C79.1905905,96.4953163 85.1692382,90.5479131 90.7194006,84.3751955 C106.801366,66.4893346 116.434783,50.1206272 116.434783,36.0434783 C116.434783,16.1652139 100.267975,0 80.3913043,0 C70.6537519,0 61.4014589,3.91097368 54.6405727,10.8325864 L61.7928709,10.8312161 C55.0278351,3.91066227 45.7762788,0 36.0434783,0 C16.1637936,0 0,16.1637936 0,36.0434783 C0,50.1206912 9.63297386,66.4898887 25.7136444,84.3751125 C31.2639844,90.5483049 37.2431952,96.496356 43.2853628,102.033859 C45.4596306,104.026524 47.5106191,105.844385 49.3908422,107.462243 C50.6222252,108.5218 51.6075648,109.347441 52.2462525,109.86938 C53.9392059,111.258719 56.0497622,112 58.2173913,112 L58.2173913,112 Z M58.2173913,102 C58.3429724,102 58.4784287,102.047576 58.5820789,102.132636 C58.3770573,101.965078 58.0827661,101.721526 57.7155056,101.413789 C57.1789276,100.964176 56.5758042,100.452227 55.9132423,99.8821181 C54.1098235,98.330347 52.1366351,96.581443 50.0418464,94.6616189 C44.2223131,89.3281546 38.4662038,83.6020423 33.1498991,77.6891484 C18.6268452,61.5363351 10,46.87684 10,36.0434783 C10,21.6866411 21.6866411,10 36.0434783,10 C43.0791329,10 49.7544756,12.8216886 54.6419117,17.8214796 L58.218762,21.4805563 L61.7942099,17.8201092 C66.6768247,12.82142 73.351532,10 80.3913043,10 C94.7453478,10 106.434783,21.6882821 106.434783,36.0434783 C106.434783,46.8765789 97.8075126,61.5356833 83.2832951,77.6890654 C77.9670964,83.6015759 72.2114349,89.3271582 66.3909861,94.6616914 C64.2968192,96.5810285 62.3243726,98.3294463 60.5198931,99.8824399 C59.8579662,100.452116 59.2553835,100.963756 58.7176938,101.414503 C58.3525142,101.720635 58.0649441,101.958816 57.8566041,102.129439 C57.958076,102.046162 58.089662,102 58.2173913,102 L58.2173913,102 Z" id="Fill-1755-Copy-2"></path>
                <g id="Group" transform="translate(58.500000, 50.500000) rotate(-360.000000) translate(-58.500000, -50.500000) translate(37.000000, 31.000000)">
                    <path d="M0,22 L0,34.0415946 C0,36.2507336 1.790861,38.0415946 4,38.0415946 C6.209139,38.0415946 8,36.2507336 8,34.0415946 L8,22 C8,19.790861 6.209139,18 4,18 C1.790861,18 0,19.790861 0,22 L0,22 Z" id="Line"></path>
                    <path d="M18,14 L18,34 C18,36.209139 19.790861,38 22,38 C24.209139,38 26,36.209139 26,34 L26,14 C26,11.790861 24.209139,10 22,10 C19.790861,10 18,11.790861 18,14 L18,14 Z" id="Line"></path>
                    <path d="M35,4 L35,34 C35,36.209139 36.790861,38 39,38 C41.209139,38 43,36.209139 43,34 L43,4 C43,1.790861 41.209139,0 39,0 C36.790861,0 35,1.790861 35,4 L35,4 Z" id="Line"></path>
                </g>
            </g>
            <g id="Group-3" transform="translate(130.000000, 9.000000)">
                <path d="M17.576,62.92 C24.344,70.408 31.832,79.768 41.336,92.728 C42.2,94.024 42.92,93.592 43.64,92.44 C45.512,89.56 44.936,84.664 42.92,80.776 C39.896,74.728 34.712,67.816 29.24,61.048 C45.224,57.304 60.776,48.232 68.552,37.864 C74.024,30.52 76.04,21.736 73.016,13.096 C69.56,3.304 63.224,1.144 55.88,1.432 C46.232,1.864 35.432,7.768 23.336,9.208 C21.464,9.496 21.032,10.216 21.752,11.656 C23.48,14.824 26.072,16.984 30.968,17.416 C18.296,37.288 4.76,64.648 1.16,77.752 C-1,85.528 0.44,89.848 2.456,92.008 C3.464,93.016 4.184,92.872 4.76,91.432 C9.512,79.624 13.688,70.552 17.576,62.92 Z M39.752,16.552 C49.256,13.96 63.656,6.472 66.824,14.536 C71,24.76 54.728,45.784 22.904,52.84 C26.792,45.784 30.392,39.736 34.28,32.824 C38.168,25.624 39.752,20.584 39.752,16.552 Z" id="Combined-Shape"></path>
                <path d="M70.4070588,66.376 C80.4870588,74.584 90.1350588,70.84 97.1910588,62.2 C103.239059,54.856 104.391059,46.072 101.799059,42.616 C99.4950588,39.448 96.9030588,37.288 93.3030588,35.128 C86.1030588,30.952 71.4150588,38.44 62.0550588,57.016 C52.6950588,75.592 59.0310588,93.592 77.3190588,93.304 C88.4070588,93.16 99.4950588,86.536 105.543059,77.752 C108.135059,74.008 108.567059,69.976 107.991059,68.824 C107.415059,67.528 106.263059,67.528 105.543059,68.68 C99.3510588,78.184 88.8390588,89.704 76.8870588,89.128 C69.2550588,88.696 65.7990588,79.624 70.4070588,66.376 Z M71.7030588,63.208 C71.9910588,62.488 72.4230588,61.624 72.8550588,60.76 C79.6230588,47.08 91.5750588,38.44 94.5990588,40.888 C96.6150588,42.472 93.4470588,49.96 88.8390588,56.008 C84.6630588,61.48 78.7590588,67.672 71.7030588,63.208 Z" id="Combined-Shape"></path>
                <path d="M146.422118,44.2 C146.710118,38.584 143.830118,33.832 137.638118,33.832 C130.438118,33.832 119.062118,40.312 107.398118,57.304 C95.4461177,74.728 98.1821177,93.016 111.574118,93.016 C118.486118,93.016 124.966118,87.688 129.574118,81.784 C129.574118,88.552 133.606118,93.16 141.382118,93.592 C149.302118,94.024 158.374118,86.104 162.118118,78.184 C163.990118,74.152 163.990118,70.552 163.414118,69.256 C162.838118,67.96 161.830118,68.104 161.110118,69.4 C156.070118,79.336 148.150118,89.128 142.246118,89.416 C137.350118,89.704 137.494118,83.512 141.094118,75.448 C144.550118,67.816 151.750118,57.016 154.918118,50.536 C158.374118,43.336 157.222118,37.144 155.062118,34.552 C154.054118,33.256 152.902118,33.544 151.606118,35.416 C150.022118,37.72 148.294118,40.744 146.422118,44.2 Z M133.894118,66.52 C126.550118,79.192 119.062118,88.408 113.158118,88.264 C107.542118,88.12 109.414118,75.448 117.046118,63.064 C124.966118,50.248 135.478118,40.888 140.086118,41.32 C144.262118,41.752 142.966118,50.68 133.894118,66.52 Z" id="Combined-Shape"></path>
                <path d="M190.469177,35.416 C183.269177,31.096 168.725177,38.872 159.509177,57.016 C150.149177,75.592 156.341177,93.448 174.629177,93.16 C185.573177,93.016 196.949177,85.96 202.421177,77.464 C204.869177,73.576 205.445177,69.976 205.013177,68.824 C204.437177,67.384 203.141177,67.528 202.421177,68.68 C196.517177,77.752 186.149177,89.272 174.053177,89.128 C165.557177,88.984 162.533177,77.032 170.453177,60.76 C176.933177,47.656 187.733177,38.44 190.181177,40.456 C192.197177,42.04 187.877177,48.232 186.293177,53.416 C184.277177,59.896 186.293177,64.216 189.749177,65.944 C191.621177,66.952 192.197177,66.52 192.773177,64.792 C195.653177,57.016 201.413177,49.384 198.389177,43.336 C196.661177,40.024 194.357177,37.72 190.469177,35.416 L190.469177,35.416 Z" id="Path"></path>
                <path d="M214.212235,34.984 C208.020235,46.36 201.972235,58.456 198.948235,65.656 C192.036235,82.216 199.668235,92.872 209.172235,93.16 C220.692235,93.592 230.196235,80.92 232.068235,76.744 C233.508235,73.432 234.228235,70.84 233.508235,68.536 C232.932235,66.52 231.348235,66.808 230.484235,68.536 C225.156235,79.336 216.948235,89.56 210.468235,89.272 C204.420235,88.984 202.836235,80.056 207.588235,69.544 C213.060235,57.448 221.268235,43.48 226.884235,33.832 C230.484235,33.256 234.948235,32.824 238.116235,33.256 C240.276235,33.256 240.852235,32.248 239.844235,30.52 C238.692235,28.648 236.532235,26.056 230.916235,26.2 C234.372235,18.712 234.372235,13.96 232.788235,9.928 C232.068235,8.2 230.628235,8.056 229.332235,9.928 C226.884235,13.096 222.852235,19.864 218.388235,27.784 C214.500235,28.216 210.468235,28.504 206.436235,28.36 C204.276235,28.216 203.412235,29.224 204.852235,31.24 C206.004235,32.824 209.316235,34.984 214.212235,34.984 L214.212235,34.984 Z" id="Path"></path>
                <path d="M268.627294,68.392 C268.195294,72.712 268.051294,76.456 268.051294,79.336 C268.195294,87.544 270.499294,91.144 273.379294,92.44 C274.675294,93.016 275.539294,92.584 275.539294,91.144 C275.827294,83.512 276.691294,75.592 277.699294,68.104 C280.147294,68.248 282.163294,68.536 283.891294,68.968 C285.187294,69.4 285.763294,68.968 285.475294,67.672 C284.899294,64.648 283.315294,61.768 278.995294,60.328 C281.731294,44.488 285.763294,29.8 289.507294,18.424 C290.803294,14.536 290.947294,11.368 289.507294,7.912 C288.067294,4.312 287.635294,4.024 286.195294,2.008 C284.755294,-0.008 283.315294,-0.008 281.011294,1.864 C265.747294,14.392 245.731294,42.904 234.499294,62.488 C232.195294,62.344 230.035294,62.056 228.019294,61.768 C225.859294,61.48 225.571294,62.056 226.291294,63.928 C226.723294,64.936 227.875294,67.096 231.043294,68.824 C229.315294,71.992 228.019294,74.872 227.155294,77.032 C224.131294,85.096 224.707294,89.416 226.435294,91.72 C227.155294,92.728 228.451294,92.728 229.027294,91.432 C231.907294,85.096 235.651294,78.04 239.971294,70.696 C246.739294,70.84 258.403294,69.112 268.627294,68.392 Z M245.443294,62.056 C256.387294,44.92 269.491294,27.496 280.435294,15.256 C275.971294,26.488 271.939294,44.632 269.779294,59.608 C263.011294,59.752 254.227294,61.336 245.443294,62.056 Z" id="Combined-Shape"></path>
                <path d="M319.298353,35.416 C312.098353,31.096 297.554353,38.872 288.338353,57.016 C278.978353,75.592 285.170353,93.448 303.458353,93.16 C314.402353,93.016 325.778353,85.96 331.250353,77.464 C333.698353,73.576 334.274353,69.976 333.842353,68.824 C333.266353,67.384 331.970353,67.528 331.250353,68.68 C325.346353,77.752 314.978353,89.272 302.882353,89.128 C294.386353,88.984 291.362353,77.032 299.282353,60.76 C305.762353,47.656 316.562353,38.44 319.010353,40.456 C321.026353,42.04 316.706353,48.232 315.122353,53.416 C313.106353,59.896 315.122353,64.216 318.578353,65.944 C320.450353,66.952 321.026353,66.52 321.602353,64.792 C324.482353,57.016 330.242353,49.384 327.218353,43.336 C325.490353,40.024 323.186353,37.72 319.298353,35.416 L319.298353,35.416 Z" id="Path"></path>
                <path d="M343.041412,34.984 C336.849412,46.36 330.801412,58.456 327.777412,65.656 C320.865412,82.216 328.497412,92.872 338.001412,93.16 C349.521412,93.592 359.025412,80.92 360.897412,76.744 C362.337412,73.432 363.057412,70.84 362.337412,68.536 C361.761412,66.52 360.177412,66.808 359.313412,68.536 C353.985412,79.336 345.777412,89.56 339.297412,89.272 C333.249412,88.984 331.665412,80.056 336.417412,69.544 C341.889412,57.448 350.097412,43.48 355.713412,33.832 C359.313412,33.256 363.777412,32.824 366.945412,33.256 C369.105412,33.256 369.681412,32.248 368.673412,30.52 C367.521412,28.648 365.361412,26.056 359.745412,26.2 C363.201412,18.712 363.201412,13.96 361.617412,9.928 C360.897412,8.2 359.457412,8.056 358.161412,9.928 C355.713412,13.096 351.681412,19.864 347.217412,27.784 C343.329412,28.216 339.297412,28.504 335.265412,28.36 C333.105412,28.216 332.241412,29.224 333.681412,31.24 C334.833412,32.824 338.145412,34.984 343.041412,34.984 L343.041412,34.984 Z" id="Path"></path>
            </g>
        </g>
    </g>
</svg>