<?xml version="1.0" encoding="UTF-8" standalone="no"?>
<svg width="200px" height="200px" viewBox="0 0 200 200" version="1.1" xmlns="http://www.w3.org/2000/svg" xmlns:xlink="http://www.w3.org/1999/xlink">
    <!-- Generator: Sketch 3.7.2 (28276) - http://www.bohemiancoding.com/sketch -->
    <title>200</title>
    <desc>Created with Sketch.</desc>
    <defs></defs>
    <g id="Page-1" stroke="none" stroke-width="1" fill="none" fill-rule="evenodd">
        <g id="200" fill="#FF79A6">
            <path d="M100,196.018779 C102.800975,196.018779 105.534525,195.059807 107.732596,193.255955 C108.891442,192.306903 110.592297,190.881068 112.769855,189.006992 C116.118618,186.124937 119.771016,182.887375 123.644752,179.337036 C134.413985,169.466863 145.067247,158.869276 154.944129,147.884515 C167.558151,133.855593 178.050363,120.133551 185.761539,107.031037 C194.991323,91.3481639 200,76.9575014 200,64.0938967 C200,30.9554487 173.041893,4 139.906103,4 C123.669229,4 108.248301,10.5184755 96.9773364,22.0573847 L103.021532,22.0562267 C91.7427789,10.5181919 76.3225214,4 60.0938967,4 C26.9527874,4 0,30.9527874 0,64.0938967 C0,76.9574881 5.00825768,91.3481691 14.2372679,107.030916 C21.9479799,120.133637 32.4396811,133.855881 45.0528149,147.884445 C54.9299828,158.870016 65.5842026,169.468714 76.351948,179.337097 C80.2270134,182.888502 83.8810161,186.127169 87.22817,189.007264 C89.4131564,190.887359 91.1555223,192.347332 92.2741509,193.26148 C94.4672139,195.061234 97.1935144,196.018779 100,196.018779 L100,196.018779 Z M100,187.568075 C99.1314385,187.568075 98.3031768,187.277169 97.6283704,186.723387 C96.5575426,185.848291 94.8699506,184.434214 92.7400574,182.601524 C89.4578086,179.777278 85.8695524,176.596885 82.0616524,173.107035 C71.4820487,163.411079 61.0163654,152.999935 51.3369738,142.234334 C39.0726176,128.593687 28.9098735,115.301691 21.5204345,102.744906 C12.9883266,88.2463963 8.45070423,75.2080345 8.45070423,64.0938967 C8.45070423,35.6199825 31.6199825,12.4507042 60.0938967,12.4507042 C74.0432431,12.4507042 87.2864188,18.0486367 96.978468,27.9634916 L100.001158,31.0556691 L103.022664,27.9623336 C112.706356,18.0484302 125.949044,12.4507042 139.906103,12.4507042 C168.374884,12.4507042 191.549296,35.6228304 191.549296,64.0938967 C191.549296,75.2079148 187.011316,88.2461976 178.478514,102.744785 C171.08862,115.301391 160.925354,128.593227 148.660096,142.234264 C138.98093,152.999132 128.516107,163.409265 117.934914,173.107096 C114.128209,176.596001 110.541385,179.775436 107.257335,182.601796 C106.050197,183.640699 104.95002,184.574835 103.966759,185.399107 C103.295318,185.961979 102.763749,186.402252 102.374926,186.720685 C101.699431,187.275028 100.864102,187.568075 100,187.568075 Z M139.906103,122.779343 L139.906103,52.3568075 C139.906103,50.02321 138.014349,48.1314554 135.680751,48.1314554 C133.347154,48.1314554 131.455399,50.02321 131.455399,52.3568075 L131.455399,122.779343 C131.455399,125.11294 133.347154,127.004695 135.680751,127.004695 C138.014349,127.004695 139.906103,125.11294 139.906103,122.779343 Z M104.225352,122.779343 L104.225352,75.8309859 C104.225352,73.4973884 102.333598,71.6056338 100,71.6056338 C97.6664025,71.6056338 95.7746479,73.4973884 95.7746479,75.8309859 L95.7746479,122.779343 C95.7746479,125.11294 97.6664025,127.004695 100,127.004695 C102.333598,127.004695 104.225352,125.11294 104.225352,122.779343 Z M68.5446009,122.779343 L68.5446009,99.3051643 C68.5446009,96.9715668 66.6528464,95.0798122 64.3192488,95.0798122 C61.9856513,95.0798122 60.0938967,96.9715668 60.0938967,99.3051643 L60.0938967,122.779343 C60.0938967,125.11294 61.9856513,127.004695 64.3192488,127.004695 C66.6528464,127.004695 68.5446009,125.11294 68.5446009,122.779343 Z" id="Fill-1755-Copy-2"></path>
        </g>
    </g>
</svg>